name Walk4.mot
datacolumns 19
datarows 20
range 1.71500000 1.81000000
endheader

                time	   L_ground_force_vx	   L_ground_force_vy	   L_ground_force_vz	   L_ground_force_px	   L_ground_force_py	   L_ground_force_pz	   R_ground_force_vx	   R_ground_force_vy	   R_ground_force_vz	   R_ground_force_px	   R_ground_force_py	   R_ground_force_pz	   L_ground_torque_x	   L_ground_torque_y	   L_ground_torque_z	   R_ground_torque_x	   R_ground_torque_y	   R_ground_torque_z	
          1.71500000	          0.00766924	          0.01533630	         -0.00177574	         -0.00002421	          0.00000000	          0.00001160	        -28.17594758	        421.46657990	        -23.46799734	          0.63918911	          0.00000000	          0.07871215	          0.00000000	          0.00007806	          0.00000000	          0.00000000	          1.50734350	          0.00000000	
          1.72000000	          0.00263114	          0.00313431	         -0.00067120	         -0.00001661	          0.00000000	          0.00000868	        -26.73507072	        417.10219061	        -21.84858774	          0.64169501	          0.00000000	          0.07854542	          0.00000000	          0.00004468	          0.00000000	          0.00000000	          1.30778573	          0.00000000	
          1.72500000	         -0.00080778	         -0.00493848	          0.00009020	         -0.00001043	          0.00000000	          0.00000612	        -25.25736232	        414.00015521	        -20.32246138	          0.64374975	          0.00000000	          0.07837431	          0.00000000	          0.00001974	          0.00000000	          0.00000000	          1.10829229	          0.00000000	
          1.73000000	         -0.00294921	         -0.00972482	          0.00057134	         -0.00000564	          0.00000000	          0.00000399	        -23.72941267	        411.94207686	        -18.91177183	          0.64539936	          0.00000000	          0.07820862	          0.00000000	          0.00000218	          0.00000000	          0.00000000	          0.90370368	          0.00000000	
          1.73500000	         -0.00408922	         -0.01202510	          0.00083470	         -0.00000212	          0.00000000	          0.00000231	        -22.14710629	        410.72212223	        -17.63681977	          0.64670025	          0.00000000	          0.07805675	          0.00000000	         -0.00000925	          0.00000000	          0.00000000	          0.69045040	          0.00000000	
          1.74000000	         -0.00449688	         -0.01254918	          0.00093757	          0.00000030	          0.00000000	          0.00000105	        -20.51508589	        410.16352880	        -16.51659283	          0.64771241	          0.00000000	          0.07792358	          0.00000000	         -0.00001585	          0.00000000	          0.00000000	          0.46666080	          0.00000000	
          1.74500000	         -0.00440265	         -0.01189278	          0.00092939	          0.00000183	          0.00000000	          0.00000016	        -18.84250497	        410.12776881	        -15.56483576	          0.64849375	          0.00000000	          0.07781069	          0.00000000	         -0.00001883	          0.00000000	          0.00000000	          0.23163008	          0.00000000	
          1.75000000	         -0.00399403	         -0.01053126	          0.00085064	          0.00000267	          0.00000000	         -0.00000042	        -17.13853968	        410.51953138	        -14.78648025	          0.64909787	          0.00000000	          0.07771830	          0.00000000	         -0.00001925	          0.00000000	          0.00000000	         -0.01506580	          0.00000000	
          1.75500000	         -0.00341611	         -0.00882525	          0.00073287	          0.00000299	          0.00000000	         -0.00000076	        -15.40915537	        411.28795469	        -14.17754472	          0.64957310	          0.00000000	          0.07764423	          0.00000000	         -0.00001799	          0.00000000	          0.00000000	         -0.27392583	          0.00000000	
          1.76000000	         -0.00277533	         -0.00703325	          0.00059938	          0.00000297	          0.00000000	         -0.00000092	        -13.65547139	        412.42114737	        -13.72658095	          0.64995955	          0.00000000	          0.07758406	          0.00000000	         -0.00001577	          0.00000000	          0.00000000	         -0.54559461	          0.00000000	
          1.76500000	         -0.00214491	         -0.00532783	          0.00046637	          0.00000271	          0.00000000	         -0.00000095	        -11.87498835	        413.93627630	        -13.41649093	          0.65029034	          0.00000000	          0.07753252	          0.00000000	         -0.00001309	          0.00000000	          0.00000000	         -0.83135020	          0.00000000	
          1.77000000	         -0.00157100	         -0.00381281	          0.00034419	          0.00000234	          0.00000000	         -0.00000089	        -10.06275260	        415.87021018	        -13.22694234	          0.65059105	          0.00000000	          0.07748429	          0.00000000	         -0.00001034	          0.00000000	          0.00000000	         -1.13268353	          0.00000000	
          1.77500000	         -0.00107872	         -0.00253971	          0.00023862	          0.00000191	          0.00000000	         -0.00000079	         -8.21200142	        418.27225171	        -13.13643384	          0.65087952	          0.00000000	          0.07743411	          0.00000000	         -0.00000776	          0.00000000	          0.00000000	         -1.45074335	          0.00000000	
          1.78000000	         -0.00067771	         -0.00152244	          0.00015205	          0.00000149	          0.00000000	         -0.00000066	         -6.31586584	        421.19626079	        -13.12244819	          0.65116797	          0.00000000	          0.07737578	          0.00000000	         -0.00000549	          0.00000000	          0.00000000	         -1.78600209	          0.00000000	
          1.78500000	         -0.00036695	         -0.00074967	          0.00008450	          0.00000110	          0.00000000	         -0.00000052	         -4.36967793	        424.69112104	        -13.16097204	          0.65146521	          0.00000000	          0.07730228	          0.00000000	         -0.00000360	          0.00000000	          0.00000000	         -2.13826303	          0.00000000	
          1.79000000	         -0.00013865	         -0.00019482	          0.00003451	          0.00000076	          0.00000000	         -0.00000039	         -2.37253537	        428.79455791	        -13.22760342	          0.65177810	          0.00000000	          0.07720632	          0.00000000	         -0.00000210	          0.00000000	          0.00000000	         -2.50672278	          0.00000000	
          1.79500000	          0.00001872	          0.00017640	         -0.00000029	          0.00000048	          0.00000000	         -0.00000028	         -0.32729441	        433.52927018	        -13.29857516	          0.65211025	          0.00000000	          0.07708230	          0.00000000	         -0.00000098	          0.00000000	          0.00000000	         -2.88955384	          0.00000000	
          1.80000000	          0.00011816	          0.00040051	         -0.00002257	          0.00000027	          0.00000000	         -0.00000018	          1.75990298	        438.89822183	        -13.35193158	          0.65246435	          0.00000000	          0.07692763	          0.00000000	         -0.00000018	          0.00000000	          0.00000000	         -3.28430803	          0.00000000	
          1.80500000	          0.00017258	          0.00051255	         -0.00003508	          0.00000011	          0.00000000	         -0.00000011	          3.87973874	        444.88198577	        -13.36818254	          0.65284288	          0.00000000	          0.07674138	          0.00000000	          0.00000035	          0.00000000	          0.00000000	         -3.68836433	          0.00000000	
          1.81000000	          0.00019384	          0.00054386	         -0.00004033	         -0.00000000	          0.00000000	         -0.00000005	          6.01994146	        451.43994723	        -13.33038913	          0.65324622	          0.00000000	          0.07652348	          0.00000000	          0.00000066	          0.00000000	          0.00000000	         -4.09900867	          0.00000000	
